name C:/MyDriveSym/Projects/mobilecap/Data\Session20210903_0001\mocap\ForceDataProcessed\DJAsym3_forces.mot
datacolumns 28
datarows 18
range 1.77700000 1.78550000
endheader 
time	R_ground_force_vx	R_ground_force_vy	R_ground_force_vz	R_ground_force_px	R_ground_force_py	R_ground_force_pz	R_ground_torque_x	R_ground_torque_y	R_ground_torque_z	L_ground_force_vx	L_ground_force_vy	L_ground_force_vz	L_ground_force_px	L_ground_force_py	L_ground_force_pz	L_ground_torque_x	L_ground_torque_y	L_ground_torque_z	3_ground_force_vx	3_ground_force_vy	3_ground_force_vz	3_ground_force_px	3_ground_force_py	3_ground_force_pz	3_ground_torque_x	3_ground_torque_y	3_ground_torque_z	
          1.77700000	        -64.92062800	        404.29527400	        -13.09857200	         -0.12927700	          0.00600000	         -0.46329100	          0.00000000	         -1.46451400	          0.00000000	        -22.51471300	        177.96839400	         17.15041700	         -0.12018100	          0.00600000	         -0.73804700	          0.00000000	          0.10237200	          0.00000000	          0.00000000	          0.00000000	          0.00000000	          0.00000000	          0.00000000	          0.00000000	          0.00000000	          0.00000000	          0.00000000	
          1.77750000	        -64.24882900	        401.23043000	        -13.18928200	         -0.12921700	          0.00600000	         -0.46314600	          0.00000000	         -1.42970400	          0.00000000	        -21.35449900	        172.97696300	         17.03628800	         -0.11974900	          0.00600000	         -0.73806900	          0.00000000	          0.11385400	          0.00000000	          0.00000000	          0.00000000	          0.00000000	          0.00000000	          0.00000000	          0.00000000	          0.00000000	          0.00000000	          0.00000000	
          1.77800000	        -63.54690300	        398.09021000	        -13.27780800	         -0.12915600	          0.00600000	         -0.46299700	          0.00000000	         -1.39502500	          0.00000000	        -20.19855400	        167.96794000	         16.91815200	         -0.11930200	          0.00600000	         -0.73808000	          0.00000000	          0.12502100	          0.00000000	          0.00000000	          0.00000000	          0.00000000	          0.00000000	          0.00000000	          0.00000000	          0.00000000	          0.00000000	          0.00000000	
          1.77850000	        -62.81482800	        394.87479800	        -13.36389300	         -0.12909400	          0.00600000	         -0.46284500	          0.00000000	         -1.36053200	          0.00000000	        -19.04876800	        162.94439600	         16.79589800	         -0.11884000	          0.00600000	         -0.73808100	          0.00000000	          0.13579800	          0.00000000	          0.00000000	          0.00000000	          0.00000000	          0.00000000	          0.00000000	          0.00000000	          0.00000000	          0.00000000	          0.00000000	
          1.77900000	        -62.05263700	        391.58437600	        -13.44725000	         -0.12903100	          0.00600000	         -0.46268900	          0.00000000	         -1.32627900	          0.00000000	        -17.90709700	        157.90959900	         16.66939000	         -0.11836200	          0.00600000	         -0.73807000	          0.00000000	          0.14611300	          0.00000000	          0.00000000	          0.00000000	          0.00000000	          0.00000000	          0.00000000	          0.00000000	          0.00000000	          0.00000000	          0.00000000	
          1.77950000	        -61.26041200	        388.21912500	        -13.52756700	         -0.12896800	          0.00600000	         -0.46252900	          0.00000000	         -1.29231900	          0.00000000	        -16.77556500	        152.86702300	         16.53847400	         -0.11786600	          0.00600000	         -0.73804500	          0.00000000	          0.15590100	          0.00000000	          0.00000000	          0.00000000	          0.00000000	          0.00000000	          0.00000000	          0.00000000	          0.00000000	          0.00000000	          0.00000000	
          1.78000000	        -60.43828500	        384.77924600	        -13.60451100	         -0.12890300	          0.00600000	         -0.46236600	          0.00000000	         -1.25870700	          0.00000000	        -15.65626400	        147.82038000	         16.40298500	         -0.11735200	          0.00600000	         -0.73800700	          0.00000000	          0.16509800	          0.00000000	          0.00000000	          0.00000000	          0.00000000	          0.00000000	          0.00000000	          0.00000000	          0.00000000	          0.00000000	          0.00000000	
          1.78050000	        -59.58642800	        381.26496600	        -13.67773400	         -0.12883800	          0.00600000	         -0.46220000	          0.00000000	         -1.22549600	          0.00000000	        -14.55134400	        142.77363400	         16.26274700	         -0.11681700	          0.00600000	         -0.73795200	          0.00000000	          0.17364900	          0.00000000	          0.00000000	          0.00000000	          0.00000000	          0.00000000	          0.00000000	          0.00000000	          0.00000000	          0.00000000	          0.00000000	
          1.78100000	        -58.70504700	        377.67654600	        -13.74687800	         -0.12877200	          0.00600000	         -0.46203000	          0.00000000	         -1.19273500	          0.00000000	        -13.46299600	        137.73100600	         16.11756200	         -0.11625900	          0.00600000	         -0.73788100	          0.00000000	          0.18150000	          0.00000000	          0.00000000	          0.00000000	          0.00000000	          0.00000000	          0.00000000	          0.00000000	          0.00000000	          0.00000000	          0.00000000	
          1.78150000	        -57.79438000	        374.01429000	        -13.81158600	         -0.12870500	          0.00600000	         -0.46185600	          0.00000000	         -1.16046900	          0.00000000	        -12.39341400	        132.69696900	         15.96719400	         -0.11567700	          0.00600000	         -0.73779000	          0.00000000	          0.18860300	          0.00000000	          0.00000000	          0.00000000	          0.00000000	          0.00000000	          0.00000000	          0.00000000	          0.00000000	          0.00000000	          0.00000000	
          1.78200000	        -56.85469100	        370.27853400	        -13.87151100	         -0.12863600	          0.00600000	         -0.46168000	          0.00000000	         -1.12873900	          0.00000000	        -11.34475500	        127.67623800	         15.81134800	         -0.11506800	          0.00600000	         -0.73767900	          0.00000000	          0.19491400	          0.00000000	          0.00000000	          0.00000000	          0.00000000	          0.00000000	          0.00000000	          0.00000000	          0.00000000	          0.00000000	          0.00000000	
          1.78250000	        -55.88627200	        366.46962800	        -13.92632900	         -0.12856600	          0.00600000	         -0.46150000	          0.00000000	         -1.09758100	          0.00000000	        -10.31912100	        122.67375500	         15.64967200	         -0.11442900	          0.00600000	         -0.73754500	          0.00000000	          0.20039000	          0.00000000	          0.00000000	          0.00000000	          0.00000000	          0.00000000	          0.00000000	          0.00000000	          0.00000000	          0.00000000	          0.00000000	
          1.78300000	        -54.88943500	        362.58792000	        -13.97574100	         -0.12849500	          0.00600000	         -0.46131700	          0.00000000	         -1.06702800	          0.00000000	         -9.31857800	        117.69467900	         15.48176600	         -0.11375700	          0.00600000	         -0.73738500	          0.00000000	          0.20499000	          0.00000000	          0.00000000	          0.00000000	          0.00000000	          0.00000000	          0.00000000	          0.00000000	          0.00000000	          0.00000000	          0.00000000	
          1.78350000	        -53.86450600	        358.63375700	        -14.01947200	         -0.12842200	          0.00600000	         -0.46113200	          0.00000000	         -1.03711500	          0.00000000	         -8.34516600	        112.74436500	         15.30719700	         -0.11304900	          0.00600000	         -0.73719700	          0.00000000	          0.20867700	          0.00000000	          0.00000000	          0.00000000	          0.00000000	          0.00000000	          0.00000000	          0.00000000	          0.00000000	          0.00000000	          0.00000000	
          1.78400000	        -52.81182400	        354.60750800	        -14.05727200	         -0.12834800	          0.00600000	         -0.46094300	          0.00000000	         -1.00787200	          0.00000000	         -7.40089600	        107.82834300	         15.12550900	         -0.11230000	          0.00600000	         -0.73697800	          0.00000000	          0.21142300	          0.00000000	          0.00000000	          0.00000000	          0.00000000	          0.00000000	          0.00000000	          0.00000000	          0.00000000	          0.00000000	          0.00000000	
          1.78450000	        -51.73175100	        350.50957400	        -14.08890400	         -0.12827100	          0.00600000	         -0.46075300	          0.00000000	         -0.97932800	          0.00000000	         -6.48775900	        102.95230400	         14.93622500	         -0.11150700	          0.00600000	         -0.73672300	          0.00000000	          0.21321000	          0.00000000	          0.00000000	          0.00000000	          0.00000000	          0.00000000	          0.00000000	          0.00000000	          0.00000000	          0.00000000	          0.00000000	
          1.78500000	        -50.62467600	        346.34040200	        -14.11414500	         -0.12819400	          0.00600000	         -0.46056000	          0.00000000	         -0.95151100	          0.00000000	         -5.60773500	         98.12207100	         14.73884300	         -0.11066400	          0.00600000	         -0.73642800	          0.00000000	          0.21403500	          0.00000000	          0.00000000	          0.00000000	          0.00000000	          0.00000000	          0.00000000	          0.00000000	          0.00000000	          0.00000000	          0.00000000	
          1.78550000	        -49.49102300	        342.10048400	        -14.13278800	         -0.12811400	          0.00600000	         -0.46036400	          0.00000000	         -0.92444800	          0.00000000	         -4.76280100	         93.34357200	         14.53285300	         -0.10976500	          0.00600000	         -0.73608800	          0.00000000	          0.21390200	          0.00000000	          0.00000000	          0.00000000	          0.00000000	          0.00000000	          0.00000000	          0.00000000	          0.00000000	          0.00000000	          0.00000000	
